<svg width="24" height="24" viewBox="0 0 24 24" fill="none" xmlns="http://www.w3.org/2000/svg">
<path d="M4.15027 0.0507259C3.77888 0.147013 3.39832 0.357925 3.00859 0.692635C2.5776 1.06402 1.03243 2.6367 0.780253 2.96224C-0.242215 4.26898 -0.260555 6.30016 0.729818 8.92281C1.93569 12.1278 4.19612 15.374 7.0572 18.0104C11.0003 21.6463 16.2823 23.9985 19.0013 23.3382C19.4048 23.2419 20.0742 22.9302 20.3814 22.6963C20.6932 22.4625 22.7656 20.335 22.9582 20.0553C23.3158 19.5372 23.4534 18.8449 23.3158 18.258C23.1599 17.6023 23.1095 17.5427 21.115 15.5436C19.1021 13.5308 19.038 13.4804 18.3731 13.3428C17.8458 13.2328 17.3094 13.3291 16.7913 13.6271C16.6721 13.7004 16.1035 14.2186 15.5304 14.7871L14.4896 15.8142L14.1549 15.6399C13.3341 15.2135 12.7289 14.8054 11.8257 14.0627C10.8995 13.3015 9.60649 11.9673 8.89122 11.0319C8.37311 10.3533 7.61199 9.10163 7.6074 8.93198C7.6074 8.89989 7.96504 8.52391 8.40062 8.0975C9.31763 7.20341 9.67985 6.78617 9.88618 6.39186C10.1429 5.89209 10.1934 5.25935 10.0146 4.73665C9.83574 4.20479 9.66151 4.00304 7.91002 2.24697C6.17687 0.513815 5.91093 0.284563 5.41575 0.114916C5.07187 -0.00888062 4.50332 -0.0363903 4.15027 0.0507259ZM5.214 1.33913C5.34239 1.41249 6.076 2.10483 7.06178 3.0952C8.84537 4.88338 8.91415 4.96591 8.90956 5.43817C8.90956 5.85541 8.79952 6.00213 7.60282 7.19883C6.99759 7.79947 6.47031 8.35427 6.43363 8.43221C6.37861 8.5285 6.36485 8.66146 6.37861 8.88613C6.39236 9.16123 6.42904 9.26669 6.70873 9.82148C7.34147 11.0778 8.17595 12.1828 9.55605 13.595C10.927 14.998 12.2933 16.0434 13.7009 16.7678C14.2007 17.0246 14.297 17.0613 14.5263 17.0567C14.6821 17.0567 14.8472 17.0246 14.9435 16.9742C15.0306 16.9283 15.5992 16.3965 16.2044 15.7958C16.9838 15.0209 17.3644 14.6771 17.5111 14.6129C17.7862 14.4891 18.1439 14.4891 18.396 14.6129C18.6711 14.7504 21.9128 17.9875 22.0549 18.2717C22.1329 18.4231 22.165 18.5606 22.165 18.7578C22.165 19.23 22.0687 19.3584 20.7665 20.6651C19.4781 21.9581 19.3589 22.0452 18.6711 22.2011C18.0063 22.3479 16.8921 22.2287 15.7642 21.8939C14.0448 21.385 11.734 20.1654 9.83116 18.7623C6.1677 16.0663 3.02235 11.9444 1.7156 8.13418C1.09204 6.32308 1.02326 5.02551 1.50011 4.06265C1.64683 3.75545 1.78438 3.59956 2.73807 2.63211C3.32496 2.03605 3.88892 1.49502 3.98521 1.42624C4.39786 1.14197 4.81969 1.10987 5.214 1.33913Z" fill="black"/>
</svg>
