<svg width="20" height="20" viewBox="0 0 20 20" fill="none" xmlns="http://www.w3.org/2000/svg">
<path fill-rule="evenodd" clip-rule="evenodd" d="M7.64706 12.5817C10.5709 12.5817 12.9412 10.2773 12.9412 7.43465C12.9412 4.592 10.5709 2.28758 7.64706 2.28758C4.7232 2.28758 2.35294 4.592 2.35294 7.43465C2.35294 10.2773 4.7232 12.5817 7.64706 12.5817ZM7.64706 14.8693C11.8704 14.8693 15.2941 11.5407 15.2941 7.43465C15.2941 3.3286 11.8704 0 7.64706 0C3.4237 0 0 3.3286 0 7.43465C0 11.5407 3.4237 14.8693 7.64706 14.8693Z" fill="black"/>
<path fill-rule="evenodd" clip-rule="evenodd" d="M12.1093 11.7729C12.5687 11.3262 13.3136 11.3262 13.7731 11.7729L19.6554 17.4919C20.1149 17.9385 20.1149 18.6628 19.6554 19.1094C19.196 19.5561 18.4511 19.5561 17.9916 19.1094L12.1093 13.3905C11.6498 12.9438 11.6498 12.2196 12.1093 11.7729Z" fill="black"/>
</svg>
