<svg width="24" height="24" viewBox="0 0 24 24" fill="none" xmlns="http://www.w3.org/2000/svg">
<g clip-path="url(#clip0_257_3014)">
<path d="M1.59375 3.05156C0.843752 3.19687 0.192189 3.8625 0.0468765 4.64062C-0.0187485 4.97812 -0.0187485 19.0172 0.0468765 19.3641C0.196877 20.1562 0.843752 20.8031 1.64063 20.9531C1.98281 21.0187 22.0172 21.0187 22.3594 20.9531C23.1563 20.8031 23.8031 20.1562 23.9531 19.3641C24.0188 19.0172 24.0188 4.98281 23.9531 4.63593C23.8031 3.84375 23.1563 3.19687 22.3594 3.04687C22.0453 2.98594 1.89844 2.99062 1.59375 3.05156ZM22.0969 4.02656C22.1859 4.05937 21.1125 5.0625 14.9859 10.6312C12.5203 12.8766 12.6094 12.8016 12.3984 12.8953C12.1594 13.0078 11.8406 13.0078 11.5969 12.8953C11.4188 12.8156 9.21563 10.8328 3.96563 6.02812C2.19375 4.40625 1.83281 4.05469 1.90313 4.02656C2.02031 3.97968 21.9797 3.97968 22.0969 4.02656ZM4.99688 8.325C7.1625 10.2984 8.93438 11.9297 8.94375 11.9484C8.94844 11.9719 8.51719 12.375 7.98282 12.8484C6.63281 14.0437 4.97813 15.5672 2.89219 17.5266C1.91719 18.4453 1.10625 19.2 1.08281 19.2094C1.05938 19.2187 1.03125 19.1766 1.0125 19.1156C0.975002 18.975 0.975002 5.07187 1.0125 4.87968C1.03125 4.8 1.05 4.73437 1.05469 4.73437C1.06406 4.73437 2.83594 6.34687 4.99688 8.325ZM23.0109 11.9766C23.0109 15.8437 23.0016 19.0547 22.9875 19.1156C22.9688 19.1766 22.9406 19.2187 22.9172 19.2094C22.8938 19.2 22.0828 18.4453 21.1078 17.5266C19.0219 15.5672 17.3672 14.0437 16.0172 12.8484C15.4828 12.375 15.0516 11.9719 15.0563 11.9484C15.0656 11.9297 16.8422 10.2937 19.0078 8.31562C22.5844 5.04844 22.9453 4.73437 22.9734 4.83281C22.9922 4.89375 23.0063 8.10937 23.0109 11.9766ZM10.2984 13.1531C11.1 13.8703 11.6016 14.0719 12.2953 13.9641C12.7547 13.8937 13.0922 13.6969 13.7063 13.1484C14.1844 12.7172 14.2688 12.6609 14.3391 12.7125C14.9016 13.1531 17.5031 15.5203 20.1938 18.0422C21.975 19.7109 22.2094 19.95 22.1156 19.9781C22.0547 19.9922 17.5031 20.0062 12 20.0062C6.49688 20.0062 1.94531 19.9922 1.88438 19.9781C1.79063 19.95 2.02969 19.7109 3.80625 18.0422C4.92188 16.9969 6.225 15.7828 6.70313 15.3469C7.60313 14.5172 9.69844 12.6562 9.72657 12.6562C9.73594 12.6562 9.99375 12.8766 10.2984 13.1531Z" fill="black"/>
</g>
<defs>
<clipPath id="clip0_257_3014">
<rect width="24" height="24" fill="white"/>
</clipPath>
</defs>
</svg>
