<svg width="55" height="16" viewBox="0 0 55 16" fill="none" xmlns="http://www.w3.org/2000/svg">
<path d="M1.29652 10.218H2.19352C4.37752 10.218 5.78152 10.166 7.41952 9.854L7.53652 10.738C5.84652 11.05 4.42952 11.128 2.19352 11.128H1.29652V10.218ZM1.29652 3.38H6.63952V4.264H2.36252V10.556H1.29652V3.38ZM9.31752 2.262H10.3965V14.04H9.31752V2.262ZM5.95052 6.513H9.75952V7.41H5.95052V6.513ZM12.6705 11.622H23.3175V12.519H12.6705V11.622ZM17.4285 8.814H18.5075V11.882H17.4285V8.814ZM13.9185 3.094H14.9845V5.187H20.9775V3.094H22.0435V9.1H13.9185V3.094ZM14.9845 6.058V8.216H20.9775V6.058H14.9845ZM33.1835 2.262H34.2625V14.014H33.1835V2.262ZM29.7385 3.523H30.8045C30.8045 6.929 29.2705 9.906 25.3445 11.83L24.7725 10.959C28.1655 9.321 29.7385 6.825 29.7385 3.705V3.523ZM25.3055 3.523H30.2065V4.407H25.3055V3.523Z" fill="#7D7D7D"/>
<path d="M44.0625 1.39377C43.7344 1.53752 43.5719 1.9719 43.7312 2.28127C43.7625 2.34065 45.0469 3.65315 46.5875 5.19377L49.3906 8.00002L46.5875 10.8031C45.0469 12.3469 43.7625 13.6594 43.7312 13.7188C43.6125 13.9469 43.6812 14.3063 43.8812 14.4906C44.0594 14.6594 44.4031 14.7063 44.6187 14.5969C44.7937 14.5031 50.8937 8.38752 50.9531 8.24377C50.9781 8.17815 51 8.06877 51 8.00002C51 7.93127 50.9781 7.8219 50.9531 7.75627C50.8937 7.61252 44.7937 1.4969 44.6187 1.40315C44.4781 1.33127 44.2187 1.32502 44.0625 1.39377Z" fill="#7D7D7D"/>
</svg>
