<svg width="14" height="18" viewBox="0 0 14 18" fill="none" xmlns="http://www.w3.org/2000/svg">
<path fill-rule="evenodd" clip-rule="evenodd" d="M3.24363 2.20814C3.43676 1.81808 3.86482 1.68422 4.19972 1.90915L10.4997 6.14052C10.8346 6.36546 10.9496 6.86402 10.7564 7.25408C10.5633 7.64415 10.1352 7.77801 9.80034 7.55307L3.50034 3.3217C3.16544 3.09677 3.05051 2.59821 3.24363 2.20814Z" fill="black"/>
<path fill-rule="evenodd" clip-rule="evenodd" d="M5.9515 0.326678C6.27037 0.112661 6.63195 0 7 0C7.36806 0 7.72965 0.11267 8.04854 0.326704L8.05 0.327686L12.95 3.58885C13.2689 3.80331 13.5338 4.11168 13.7181 4.48302C13.9024 4.85437 13.9996 5.27563 14 5.70454V12.2286C13.9996 12.6575 13.9024 13.0787 13.7181 13.4501C13.5338 13.8214 13.2689 14.1298 12.95 14.3442L12.9473 14.3461L8.05 17.6054L8.04874 17.6063C7.72981 17.8204 7.36814 17.9331 7 17.9331C6.63187 17.9331 6.27022 17.8204 5.95129 17.6063L5.95 17.6054L1.0527 14.3461L1.05 14.3442C0.731075 14.1298 0.466179 13.8214 0.281885 13.4501C0.09759 13.0787 0.000377721 12.6575 0 12.2286V5.70454C0.000377721 5.27563 0.0975899 4.85437 0.281885 4.48302C0.466179 4.11168 0.731076 3.80331 1.05 3.58886L1.0527 3.58704L5.9515 0.326678ZM7 1.63059C6.87712 1.63059 6.75641 1.66826 6.65 1.73981L6.6473 1.74163L1.75 5.00099L1.7489 5.00173C1.64308 5.07318 1.55518 5.17569 1.49396 5.29904C1.43258 5.42272 1.40018 5.56301 1.4 5.70586V12.2272C1.40018 12.3701 1.43258 12.5104 1.49396 12.6341C1.55518 12.7574 1.64308 12.8599 1.7489 12.9314L1.75 12.9321L6.65 16.1933C6.75641 16.2648 6.87712 16.3025 7 16.3025C7.12287 16.3025 7.24359 16.2648 7.35 16.1933L7.3527 16.1915L12.25 12.9321L12.2511 12.9314C12.3569 12.8599 12.4448 12.7574 12.506 12.6341C12.5675 12.5103 12.5999 12.3699 12.6 12.2269V5.70621C12.5999 5.56324 12.5675 5.42282 12.506 5.29904C12.4448 5.17569 12.3569 5.07319 12.2511 5.00173L12.25 5.00099L7.35 1.73982C7.24358 1.66826 7.12288 1.63059 7 1.63059Z" fill="black"/>
<path fill-rule="evenodd" clip-rule="evenodd" d="M0.282778 4.44925C0.476357 4.05949 0.904566 3.9263 1.23921 4.15176L6.9997 8.03284L12.7602 4.15176C13.0948 3.9263 13.523 4.05949 13.7166 4.44925C13.9102 4.83901 13.7959 5.33774 13.4612 5.56321L7.35021 9.68044C7.13337 9.82653 6.86603 9.82653 6.6492 9.68044L0.538196 5.56321C0.203553 5.33774 0.0891983 4.83901 0.282778 4.44925Z" fill="black"/>
<path fill-rule="evenodd" clip-rule="evenodd" d="M7 8.15126C7.3866 8.15126 7.7 8.51628 7.7 8.96655V17.1847C7.7 17.635 7.3866 18 7 18C6.6134 18 6.3 17.635 6.3 17.1847V8.96655C6.3 8.51628 6.6134 8.15126 7 8.15126Z" fill="black"/>
</svg>
