<svg width="31" height="27" viewBox="0 0 31 27" fill="none" xmlns="http://www.w3.org/2000/svg">
<path fill-rule="evenodd" clip-rule="evenodd" d="M19.0667 1.44679C20.1031 1.02868 21.2139 0.813477 22.3357 0.813477C23.4576 0.813477 24.5684 1.02868 25.6048 1.44679C26.6409 1.86482 27.5824 2.47749 28.3754 3.24982C29.1686 4.0219 29.7983 4.93898 30.2276 5.94786C30.6571 6.95693 30.8781 8.03849 30.8781 9.13075C30.8781 10.223 30.6571 11.3046 30.2276 12.3136C29.7983 13.3226 29.1689 14.2393 28.3756 15.0115C28.3755 15.0115 28.3757 15.0114 28.3756 15.0115L16.7613 26.3198C16.2482 26.8194 15.4163 26.8194 14.9032 26.3198L3.2889 15.0115C1.68703 13.4518 0.787109 11.3364 0.787109 9.13075C0.787109 6.92505 1.68703 4.8097 3.2889 3.25003C4.89077 1.69037 7.06337 0.814161 9.32875 0.814161C11.5941 0.814161 13.7667 1.69037 15.3686 3.25003L15.8322 3.70146L16.2957 3.25025C16.2957 3.25018 16.2956 3.25032 16.2957 3.25025C17.0887 2.47782 18.0304 1.86486 19.0667 1.44679ZM22.3357 3.37192C21.5591 3.37192 20.7901 3.52091 20.0726 3.81037C19.3551 4.09983 18.7032 4.52409 18.1542 5.05891L16.7613 6.4151C16.2482 6.91467 15.4163 6.91467 14.9032 6.4151L13.5106 5.05913C12.4015 3.97926 10.8972 3.3726 9.32875 3.3726C7.76027 3.3726 6.25603 3.97926 5.14694 5.05913C4.03786 6.13899 3.41478 7.6036 3.41478 9.13075C3.41478 10.6579 4.03786 12.1225 5.14694 13.2024L15.8322 23.6062L26.5175 13.2024C27.0668 12.6678 27.5028 12.0329 27.8001 11.3343C28.0974 10.6357 28.2504 9.88693 28.2504 9.13075C28.2504 8.37457 28.0974 7.6258 27.8001 6.92721C27.5028 6.22862 27.0671 5.59391 26.5178 5.05934C25.9687 4.52451 25.3164 4.09983 24.5989 3.81037C23.8814 3.52091 23.1124 3.37192 22.3357 3.37192Z" fill="black"/>
</svg>
