<svg width="24" height="21" viewBox="0 0 24 21" fill="none" xmlns="http://www.w3.org/2000/svg">
<path fill-rule="evenodd" clip-rule="evenodd" d="M14.224 0.492801C15.0304 0.167456 15.8948 0 16.7677 0C17.6407 0 18.505 0.167456 19.3115 0.492801C20.1178 0.818086 20.8503 1.29483 21.4674 1.8958C22.0846 2.49658 22.5746 3.21019 22.9087 3.99524C23.2428 4.78043 23.4148 5.62203 23.4148 6.47196C23.4148 7.32189 23.2428 8.16349 22.9087 8.94868C22.5746 9.7338 22.0849 10.4471 21.4676 11.0479C21.4675 11.048 21.4676 11.0479 21.4676 11.0479L12.43 19.8473C12.0308 20.2361 11.3835 20.2361 10.9842 19.8473L1.94673 11.0479C0.700259 9.83432 0 8.18829 0 6.47196C0 4.75563 0.700259 3.1096 1.94673 1.89597C3.1932 0.682342 4.88377 0.000532316 6.64654 0.000532316C8.40932 0.000532316 10.0999 0.682342 11.3464 1.89597L11.7071 2.24724L12.0677 1.89613C12.0678 1.89608 12.0677 1.89619 12.0677 1.89613C12.6848 1.29508 13.4176 0.818116 14.224 0.492801ZM16.7677 1.99081C16.1634 1.99081 15.565 2.10674 15.0067 2.33198C14.4484 2.55722 13.9411 2.88735 13.5139 3.30352L12.43 4.35882C12.0308 4.74755 11.3835 4.74755 10.9842 4.35882L9.90055 3.30369C9.03753 2.46341 7.86703 1.99135 6.64654 1.99135C5.42606 1.99135 4.25555 2.46341 3.39254 3.30369C2.52952 4.14396 2.04468 5.28363 2.04468 6.47196C2.04468 7.66029 2.52952 8.79995 3.39254 9.64023L11.7071 17.7358L20.0217 9.64023C20.4492 9.22426 20.7884 8.7302 21.0197 8.18661C21.2511 7.64301 21.3701 7.06037 21.3701 6.47196C21.3701 5.88355 21.2511 5.3009 21.0197 4.75731C20.7884 4.21371 20.4493 3.71982 20.0219 3.30385C19.5947 2.88769 19.0871 2.55722 18.5288 2.33198C17.9705 2.10674 17.3721 1.99081 16.7677 1.99081Z" fill="#555555"/>
</svg>
