<svg width="17" height="15" viewBox="0 0 17 15" fill="none" xmlns="http://www.w3.org/2000/svg">
<path d="M9.89117 14.2023L16.782 2.48581C16.924 2.23522 16.9992 1.95111 17 1.66175C17.0008 1.37238 16.9272 1.08785 16.7865 0.836455C16.6458 0.58506 16.4429 0.375567 16.1981 0.228819C15.9532 0.0820705 15.6749 0.00318016 15.3908 -1.60764e-07L1.60922 -1.53756e-06C1.32513 0.00317872 1.0468 0.082069 0.80194 0.228817C0.557076 0.375566 0.354204 0.585059 0.213512 0.836454C0.0728195 1.08785 -0.000790648 1.37238 4.83511e-06 1.66175C0.000800318 1.95111 0.0759751 2.23522 0.218047 2.48581L7.10883 14.2023C7.25386 14.4458 7.45807 14.6471 7.70175 14.7869C7.94543 14.9266 8.22035 15 8.5 15C8.77965 15 9.05457 14.9266 9.29825 14.7869C9.54193 14.6471 9.74614 14.4458 9.89117 14.2023Z" fill="#285430"/>
</svg>
