<svg width="15" height="16" viewBox="0 0 15 16" fill="none" xmlns="http://www.w3.org/2000/svg">
<path fill-rule="evenodd" clip-rule="evenodd" d="M2.25 2C1.83579 2 1.5 2.33579 1.5 2.75V13.25C1.5 13.6642 1.83579 14 2.25 14H12.75C13.1642 14 13.5 13.6642 13.5 13.25V2.75C13.5 2.33579 13.1642 2 12.75 2H2.25ZM0 2.75C0 1.50736 1.00736 0.5 2.25 0.5H12.75C13.9926 0.5 15 1.50736 15 2.75V13.25C15 14.4926 13.9926 15.5 12.75 15.5H2.25C1.00736 15.5 0 14.4926 0 13.25V2.75Z" fill="black"/>
<path fill-rule="evenodd" clip-rule="evenodd" d="M4.875 5C4.66789 5 4.5 5.16789 4.5 5.375C4.5 5.58211 4.66789 5.75 4.875 5.75C5.08211 5.75 5.25 5.58211 5.25 5.375C5.25 5.16789 5.08211 5 4.875 5ZM3 5.375C3 4.33947 3.83947 3.5 4.875 3.5C5.91053 3.5 6.75 4.33947 6.75 5.375C6.75 6.41053 5.91053 7.25 4.875 7.25C3.83947 7.25 3 6.41053 3 5.375Z" fill="black"/>
<path fill-rule="evenodd" clip-rule="evenodd" d="M9.96967 5.96967C10.2626 5.67678 10.7374 5.67678 11.0303 5.96967L14.7803 9.71967C15.0732 10.0126 15.0732 10.4874 14.7803 10.7803C14.4874 11.0732 14.0126 11.0732 13.7197 10.7803L10.5 7.56066L2.78033 15.2803C2.48744 15.5732 2.01256 15.5732 1.71967 15.2803C1.42678 14.9874 1.42678 14.5126 1.71967 14.2197L9.96967 5.96967Z" fill="black"/>
</svg>
