<svg width="20" height="25" viewBox="0 0 20 25" fill="none" xmlns="http://www.w3.org/2000/svg">
<path fill-rule="evenodd" clip-rule="evenodd" d="M16 2.27273C14.8954 2.27273 14 3.29026 14 4.54545C14 5.80065 14.8954 6.81818 16 6.81818C17.1046 6.81818 18 5.80065 18 4.54545C18 3.29026 17.1046 2.27273 16 2.27273ZM12 4.54545C12 2.03507 13.7909 0 16 0C18.2091 0 20 2.03507 20 4.54545C20 7.05584 18.2091 9.09091 16 9.09091C13.7909 9.09091 12 7.05584 12 4.54545Z" fill="black"/>
<path fill-rule="evenodd" clip-rule="evenodd" d="M4 10.2273C2.89543 10.2273 2 11.2448 2 12.5C2 13.7552 2.89543 14.7727 4 14.7727C5.10457 14.7727 6 13.7552 6 12.5C6 11.2448 5.10457 10.2273 4 10.2273ZM0 12.5C0 9.98961 1.79086 7.95455 4 7.95455C6.20914 7.95455 8 9.98961 8 12.5C8 15.0104 6.20914 17.0455 4 17.0455C1.79086 17.0455 0 15.0104 0 12.5Z" fill="black"/>
<path fill-rule="evenodd" clip-rule="evenodd" d="M16 18.1818C14.8954 18.1818 14 19.1994 14 20.4545C14 21.7097 14.8954 22.7273 16 22.7273C17.1046 22.7273 18 21.7097 18 20.4545C18 19.1994 17.1046 18.1818 16 18.1818ZM12 20.4545C12 17.9442 13.7909 15.9091 16 15.9091C18.2091 15.9091 20 17.9442 20 20.4545C20 22.9649 18.2091 25 16 25C13.7909 25 12 22.9649 12 20.4545Z" fill="black"/>
<path fill-rule="evenodd" clip-rule="evenodd" d="M5.72599 13.6438C6.00406 13.1015 6.6163 12.9181 7.09348 13.2341L13.9235 17.7568C14.4007 18.0728 14.5621 18.7685 14.284 19.3108C14.0059 19.853 13.3937 20.0364 12.9165 19.7205L6.08652 15.1977C5.60934 14.8818 5.44793 14.186 5.72599 13.6438Z" fill="black"/>
<path fill-rule="evenodd" clip-rule="evenodd" d="M14.2737 5.6886C14.5521 6.23065 14.391 6.9265 13.914 7.24283L7.09403 11.7656C6.61703 12.0819 6.00468 11.8989 5.72631 11.3568C5.44795 10.8148 5.60897 10.119 6.08597 9.80263L12.906 5.2799C13.383 4.96357 13.9953 5.14656 14.2737 5.6886Z" fill="black"/>
</svg>
