<svg width="127" height="23" viewBox="0 0 127 23" fill="none" xmlns="http://www.w3.org/2000/svg">
<path d="M11.102 1.83338C11.4678 1.08657 12.5322 1.08657 12.8981 1.83338L15.4764 7.0972C15.6214 7.39311 15.9028 7.59862 16.2288 7.64663L22.009 8.49801C22.8265 8.61842 23.1535 9.62217 22.5637 10.201L18.3731 14.3142C18.1394 14.5436 18.0328 14.8728 18.0877 15.1956L19.0752 20.9974C19.2144 21.8154 18.3543 22.4373 17.6211 22.0488L12.4683 19.3181C12.1754 19.1629 11.8246 19.1629 11.5317 19.3181L6.37892 22.0488C5.64574 22.4373 4.78562 21.8154 4.92484 20.9974L5.9123 15.1956C5.96724 14.8728 5.86065 14.5436 5.62695 14.3142L1.43629 10.201C0.846549 9.62217 1.17352 8.61842 1.99105 8.49801L7.77123 7.64663C8.09721 7.59862 8.37861 7.39311 8.52356 7.0972L11.102 1.83338Z" fill="#33B822"/>
<path d="M37.102 1.83338C37.4678 1.08657 38.5322 1.08657 38.8981 1.83338L41.4764 7.0972C41.6214 7.39311 41.9028 7.59862 42.2288 7.64663L48.009 8.49801C48.8265 8.61842 49.1535 9.62217 48.5637 10.201L44.3731 14.3142C44.1394 14.5436 44.0328 14.8728 44.0877 15.1956L45.0752 20.9974C45.2144 21.8154 44.3543 22.4373 43.6211 22.0488L38.4683 19.3181C38.1754 19.1629 37.8246 19.1629 37.5317 19.3181L32.3789 22.0488C31.6457 22.4373 30.7856 21.8154 30.9248 20.9974L31.9123 15.1956C31.9672 14.8728 31.8606 14.5436 31.627 14.3142L27.4363 10.201C26.8465 9.62217 27.1735 8.61842 27.991 8.49801L33.7712 7.64663C34.0972 7.59862 34.3786 7.39311 34.5236 7.0972L37.102 1.83338Z" fill="#33B822"/>
<path d="M63.102 1.83338C63.4678 1.08657 64.5322 1.08657 64.8981 1.83338L67.4764 7.0972C67.6214 7.39311 67.9028 7.59862 68.2288 7.64663L74.009 8.49801C74.8265 8.61842 75.1535 9.62217 74.5637 10.201L70.3731 14.3142C70.1394 14.5436 70.0328 14.8728 70.0877 15.1956L71.0752 20.9974C71.2144 21.8154 70.3543 22.4373 69.6211 22.0488L64.4683 19.3181C64.1754 19.1629 63.8246 19.1629 63.5317 19.3181L58.3789 22.0488C57.6457 22.4373 56.7856 21.8154 56.9248 20.9974L57.9123 15.1956C57.9672 14.8728 57.8606 14.5436 57.627 14.3142L53.4363 10.201C52.8465 9.62217 53.1735 8.61842 53.991 8.49801L59.7712 7.64663C60.0972 7.59862 60.3786 7.39311 60.5236 7.0972L63.102 1.83338Z" fill="#33B822"/>
<path d="M89.102 1.83338C89.4678 1.08657 90.5322 1.08657 90.8981 1.83338L93.4764 7.0972C93.6214 7.39311 93.9028 7.59862 94.2288 7.64663L100.009 8.49801C100.826 8.61842 101.153 9.62217 100.564 10.201L96.3731 14.3142C96.1394 14.5436 96.0328 14.8728 96.0877 15.1956L97.0752 20.9974C97.2144 21.8154 96.3543 22.4373 95.6211 22.0488L90.4683 19.3181C90.1754 19.1629 89.8246 19.1629 89.5317 19.3181L84.3789 22.0488C83.6457 22.4373 82.7856 21.8154 82.9248 20.9974L83.9123 15.1956C83.9672 14.8728 83.8606 14.5436 83.627 14.3142L79.4363 10.201C78.8465 9.62217 79.1735 8.61842 79.991 8.49801L85.7712 7.64663C86.0972 7.59862 86.3786 7.39311 86.5236 7.0972L89.102 1.83338Z" fill="#33B822"/>
<path d="M118.949 5.74919L116.897 1.56011C116.531 0.813298 115.467 0.813299 115.101 1.56011L112.523 6.82393C112.378 7.11983 112.096 7.32534 111.77 7.37336L105.99 8.22473C105.173 8.34515 104.846 9.3489 105.435 9.92773L109.626 14.0409C109.86 14.2703 109.966 14.5996 109.911 14.9224L108.924 20.7241C108.785 21.5421 109.645 22.1641 110.378 21.7755L115.531 19.0448C115.824 18.8896 116.174 18.8896 116.467 19.0448L118.949 20.36V5.74919Z" fill="#33B822"/>
<path d="M119.049 20.413L121.62 21.7755C122.353 22.1641 123.213 21.5421 123.074 20.7241L122.087 14.9224C122.032 14.5996 122.138 14.2703 122.372 14.0409L126.563 9.92773C127.153 9.3489 126.826 8.34515 126.008 8.22473L120.228 7.37336C119.902 7.32534 119.62 7.11983 119.476 6.82393L119.049 5.95334V20.413Z" fill="#D9D9D9"/>
</svg>
