<svg width="69" height="12" viewBox="0 0 69 12" fill="none" xmlns="http://www.w3.org/2000/svg">
<path d="M5.6361 1.74413C6.00731 1.01716 7.0461 1.01716 7.41731 1.74413L8.30718 3.48682C8.4553 3.77689 8.7354 3.97665 9.05789 4.02221L10.9922 4.29552C11.8226 4.41285 12.1484 5.43883 11.5378 6.01375L10.1836 7.28876C9.93803 7.51998 9.82556 7.85942 9.88449 8.19153L10.2098 10.0248C10.3539 10.8373 9.50754 11.4649 8.77197 11.0909L6.97987 10.1799C6.6951 10.0351 6.35831 10.0351 6.07354 10.1799L4.28144 11.0909C3.54587 11.4649 2.6995 10.8373 2.84365 10.0248L3.16892 8.19153C3.22785 7.85942 3.11538 7.51998 2.8698 7.28876L1.51561 6.01375C0.904988 5.43883 1.23077 4.41285 2.06121 4.29552L3.99552 4.02221C4.31801 3.97665 4.59811 3.77689 4.74623 3.48682L5.6361 1.74413Z" fill="#33B822"/>
<path d="M19.7777 1.74413C20.1489 1.01716 21.1877 1.01716 21.5589 1.74413L22.4488 3.48682C22.5969 3.77689 22.877 3.97665 23.1995 4.02221L25.1338 4.29552C25.9642 4.41285 26.29 5.43883 25.6794 6.01375L24.3252 7.28876C24.0796 7.51998 23.9672 7.85942 24.0261 8.19153L24.3514 10.0248C24.4955 10.8373 23.6491 11.4649 22.9136 11.0909L21.1215 10.1799C20.8367 10.0351 20.4999 10.0351 20.2151 10.1799L18.423 11.0909C17.6875 11.4649 16.8411 10.8373 16.9853 10.0248L17.3105 8.19153C17.3694 7.85942 17.257 7.51998 17.0114 7.28876L15.6572 6.01375C15.0466 5.43883 15.3724 4.41285 16.2028 4.29552L18.1371 4.02221C18.4596 3.97665 18.7397 3.77689 18.8878 3.48682L19.7777 1.74413Z" fill="#33B822"/>
<path d="M33.9183 1.74413C34.2895 1.01716 35.3283 1.01716 35.6995 1.74413L36.5894 3.48682C36.7375 3.77689 37.0176 3.97665 37.3401 4.02221L39.2744 4.29552C40.1049 4.41285 40.4306 5.43883 39.82 6.01375L38.4658 7.28876C38.2203 7.51998 38.1078 7.85942 38.1667 8.19153L38.492 10.0248C38.6361 10.8373 37.7898 11.4649 37.0542 11.0909L35.2621 10.1799C34.9773 10.0351 34.6405 10.0351 34.3558 10.1799L32.5637 11.0909C31.8281 11.4649 30.9817 10.8373 31.1259 10.0248L31.4511 8.19153C31.5101 7.85942 31.3976 7.51998 31.152 7.28876L29.7978 6.01375C29.1872 5.43883 29.513 4.41285 30.3434 4.29552L32.2777 4.02221C32.6002 3.97665 32.8803 3.77689 33.0285 3.48682L33.9183 1.74413Z" fill="#33B822"/>
<path d="M48.0599 1.74413C48.4311 1.01716 49.4699 1.01716 49.8411 1.74413L50.731 3.48682C50.8791 3.77689 51.1592 3.97665 51.4817 4.02221L53.416 4.29552C54.2465 4.41285 54.5723 5.43883 53.9616 6.01375L52.6074 7.28876C52.3619 7.51998 52.2494 7.85942 52.3083 8.19153L52.6336 10.0248C52.7777 10.8373 51.9314 11.4649 51.1958 11.0909L49.4037 10.1799C49.1189 10.0351 48.7821 10.0351 48.4974 10.1799L46.7053 11.0909C45.9697 11.4649 45.1233 10.8373 45.2675 10.0248L45.5927 8.19153C45.6517 7.85942 45.5392 7.51998 45.2936 7.28876L43.9394 6.01375C43.3288 5.43883 43.6546 4.41285 44.485 4.29552L46.4193 4.02221C46.7418 3.97665 47.0219 3.77689 47.1701 3.48682L48.0599 1.74413Z" fill="#33B822"/>
<path d="M64.6951 2.99956L63.5791 0.813957C63.3801 0.424319 62.8012 0.424319 62.6022 0.813958L61.1998 3.5603C61.121 3.71468 60.968 3.82191 60.7907 3.84696L57.6469 4.29115C57.2022 4.35398 57.0244 4.87768 57.3451 5.17968L59.6244 7.32568C59.7515 7.44536 59.8095 7.61715 59.7796 7.78557L59.2425 10.8126C59.1668 11.2394 59.6346 11.5638 60.0334 11.3611L62.836 9.93641C62.9953 9.85543 63.186 9.85543 63.3453 9.93641L64.6951 10.6226V2.99956Z" fill="#33B822"/>
<path d="M64.7495 10.6502L66.1479 11.3611C66.5467 11.5638 67.0145 11.2394 66.9388 10.8126L66.4017 7.78557C66.3718 7.61715 66.4298 7.44536 66.5569 7.32568L68.8362 5.17968C69.1569 4.87767 68.9791 4.35398 68.5344 4.29115L65.3907 3.84696C65.2134 3.82191 65.0603 3.71468 64.9815 3.5603L64.7495 3.10608V10.6502Z" fill="#D9D9D9"/>
</svg>
