<svg width="90" height="16" viewBox="0 0 90 16" fill="none" xmlns="http://www.w3.org/2000/svg">
<path d="M7.6185 1.79087C7.9869 1.05337 9.03929 1.05337 9.40769 1.79087L10.9098 4.79798C11.0563 5.09116 11.3371 5.29398 11.6615 5.34083L15.0024 5.82337C15.8261 5.94233 16.1525 6.95654 15.5529 7.5336L13.1523 9.84414C12.913 10.0744 12.8037 10.4085 12.8605 10.7357L13.4289 14.0106C13.5704 14.8259 12.7168 15.4505 11.9825 15.0689L8.97421 13.5057C8.68515 13.3554 8.34104 13.3554 8.05198 13.5057L5.04369 15.0689C4.30936 15.4505 3.45578 14.8259 3.5973 14.0106L4.16573 10.7357C4.22252 10.4085 4.11318 10.0744 3.87391 9.84414L1.47325 7.5336C0.873669 6.95654 1.20013 5.94233 2.02375 5.82337L5.36471 5.34083C5.68908 5.29398 5.9699 5.09116 6.11636 4.79798L7.6185 1.79087Z" fill="#33B822"/>
<path d="M26.0638 1.79087C26.4322 1.05337 27.4846 1.05337 27.853 1.79087L29.3551 4.79798C29.5016 5.09116 29.7824 5.29398 30.1068 5.34083L33.4478 5.82337C34.2714 5.94233 34.5978 6.95654 33.9983 7.5336L31.5976 9.84414C31.3583 10.0744 31.249 10.4085 31.3058 10.7357L31.8742 14.0106C32.0157 14.8259 31.1621 15.4505 30.4278 15.0689L27.4195 13.5057C27.1305 13.3554 26.7864 13.3554 26.4973 13.5057L23.489 15.0689C22.7547 15.4505 21.9011 14.8259 22.0426 14.0106L22.611 10.7357C22.6678 10.4085 22.5585 10.0744 22.3192 9.84414L19.9186 7.5336C19.319 6.95654 19.6454 5.94233 20.4691 5.82337L23.81 5.34083C24.1344 5.29398 24.4152 5.09116 24.5617 4.79798L26.0638 1.79087Z" fill="#33B822"/>
<path d="M44.5081 1.79087C44.8766 1.05337 45.9289 1.05337 46.2973 1.79087L47.7995 4.79798C47.9459 5.09116 48.2268 5.29398 48.5511 5.34083L51.8921 5.82337C52.7157 5.94233 53.0422 6.95654 52.4426 7.5336L50.0419 9.84414C49.8027 10.0744 49.6933 10.4085 49.7501 10.7357L50.3185 14.0106C50.4601 14.8259 49.6065 15.4505 48.8722 15.0689L45.8639 13.5057C45.5748 13.3554 45.2307 13.3554 44.9416 13.5057L41.9333 15.0689C41.199 15.4505 40.3454 14.8259 40.487 14.0106L41.0554 10.7357C41.1122 10.4085 41.0028 10.0744 40.7636 9.84414L38.3629 7.5336C37.7633 6.95654 38.0898 5.94233 38.9134 5.82337L42.2544 5.34083C42.5787 5.29398 42.8596 5.09116 43.006 4.79798L44.5081 1.79087Z" fill="#33B822"/>
<path d="M62.9535 1.79087C63.3219 1.05337 64.3742 1.05337 64.7427 1.79087L66.2448 4.79798C66.3912 5.09116 66.6721 5.29398 66.9964 5.34083L70.3374 5.82337C71.161 5.94233 71.4875 6.95654 70.8879 7.5336L68.4872 9.84414C68.248 10.0744 68.1386 10.4085 68.1954 10.7357L68.7638 14.0106C68.9054 14.8259 68.0518 15.4505 67.3175 15.0689L64.3092 13.5057C64.0201 13.3554 63.676 13.3554 63.3869 13.5057L60.3786 15.0689C59.6443 15.4505 58.7907 14.8259 58.9323 14.0106L59.5007 10.7357C59.5575 10.4085 59.4481 10.0744 59.2089 9.84414L56.8082 7.5336C56.2086 6.95654 56.5351 5.94233 57.3587 5.82337L60.6997 5.34083C61.024 5.29398 61.3049 5.09116 61.4513 4.79798L62.9535 1.79087Z" fill="#33B822"/>
<path d="M84.3852 3.99934L82.9295 1.0852C82.67 0.565677 81.9148 0.565677 81.6553 1.0852L79.8261 4.74698C79.7233 4.95283 79.5236 5.0958 79.2924 5.1292L75.1918 5.72146C74.6118 5.80523 74.3798 6.50349 74.7982 6.90615L77.7712 9.7675C77.937 9.92706 78.0126 10.1561 77.9736 10.3807L77.2731 14.4167C77.1743 14.9857 77.7845 15.4184 78.3046 15.1481L81.9602 13.2485C82.168 13.1405 82.4168 13.1405 82.6246 13.2485L84.3852 14.1634V3.99934Z" fill="#33B822"/>
<path d="M84.4561 14.2002L86.2801 15.1481C86.8002 15.4184 87.4104 14.9857 87.3117 14.4167L86.6111 10.3807C86.5722 10.1561 86.6478 9.92706 86.8136 9.7675L89.7865 6.90615C90.2049 6.50349 89.9729 5.80523 89.393 5.72146L85.2924 5.1292C85.0611 5.0958 84.8615 4.95283 84.7586 4.74698L84.4561 4.14136V14.2002Z" fill="#D9D9D9"/>
</svg>
