<svg width="19" height="19" viewBox="0 0 19 19" fill="none" xmlns="http://www.w3.org/2000/svg">
<path fill-rule="evenodd" clip-rule="evenodd" d="M7.02109 11.8101C9.70562 11.8101 11.8819 9.647 11.8819 6.97869C11.8819 4.31038 9.70562 2.14729 7.02109 2.14729C4.33657 2.14729 2.16034 4.31038 2.16034 6.97869C2.16034 9.647 4.33657 11.8101 7.02109 11.8101ZM7.02109 13.9574C10.8987 13.9574 14.0422 10.8329 14.0422 6.97869C14.0422 3.12447 10.8987 0 7.02109 0C3.14345 0 0 3.12447 0 6.97869C0 10.8329 3.14345 13.9574 7.02109 13.9574Z" fill="#8A8A8A"/>
<path fill-rule="evenodd" clip-rule="evenodd" d="M11.1181 11.0509C11.5399 10.6316 12.2238 10.6316 12.6456 11.0509L18.0465 16.4191C18.4683 16.8384 18.4683 17.5182 18.0465 17.9375C17.6247 18.3568 16.9407 18.3568 16.5189 17.9375L11.1181 12.5693C10.6962 12.15 10.6962 11.4702 11.1181 11.0509Z" fill="#8A8A8A"/>
</svg>
