<svg width="13" height="7" viewBox="0 0 13 7" fill="none" xmlns="http://www.w3.org/2000/svg">
<path d="M12.6644 0.375327C12.5271 0.061998 12.1123 -0.0931746 11.8169 0.0590138C11.7602 0.0888547 10.5069 1.31531 9.03575 2.78647L6.35604 5.46319L3.67931 2.78647C2.20518 1.31531 0.951859 0.0888542 0.895162 0.0590134C0.677323 -0.0543819 0.334153 0.011268 0.158092 0.202249C-0.00304845 0.372342 -0.0478098 0.700592 0.0566333 0.906494C0.146156 1.0736 5.98601 6.89854 6.12328 6.95524C6.18595 6.97911 6.29039 7 6.35604 7C6.42169 7 6.52613 6.97911 6.5888 6.95524C6.72607 6.89854 12.5659 1.0736 12.6554 0.906495C12.7241 0.772211 12.73 0.524531 12.6644 0.375327Z" fill="#8A8A8A"/>
</svg>
