<svg width="25" height="25" viewBox="0 0 25 25" fill="none" xmlns="http://www.w3.org/2000/svg">
<path fill-rule="evenodd" clip-rule="evenodd" d="M9.42687 16.1765C13.0312 16.1765 15.9532 13.2137 15.9532 9.55883C15.9532 5.904 13.0312 2.94118 9.42687 2.94118C5.8225 2.94118 2.90058 5.904 2.90058 9.55883C2.90058 13.2137 5.8225 16.1765 9.42687 16.1765ZM9.42687 19.1177C14.6332 19.1177 18.8537 14.838 18.8537 9.55883C18.8537 4.27963 14.6332 0 9.42687 0C4.22055 0 0 4.27963 0 9.55883C0 14.838 4.22055 19.1177 9.42687 19.1177Z" fill="#8A8A8A"/>
<path fill-rule="evenodd" clip-rule="evenodd" d="M14.9277 15.1366C15.494 14.5623 16.4123 14.5623 16.9787 15.1366L24.2301 22.4895C24.7965 23.0638 24.7965 23.995 24.2301 24.5693C23.6637 25.1436 22.7455 25.1436 22.1791 24.5693L14.9277 17.2163C14.3613 16.642 14.3613 15.7109 14.9277 15.1366Z" fill="#8A8A8A"/>
</svg>
