<svg width="26" height="26" viewBox="0 0 26 26" fill="none" xmlns="http://www.w3.org/2000/svg">
<path d="M9.90375 23.3844C8.08859 22.844 6.47284 21.8406 5.19345 20.5112C5.67071 19.9456 5.95835 19.2147 5.95835 18.4167C5.95835 16.6217 4.50328 15.1667 2.70835 15.1667C2.59978 15.1667 2.49244 15.172 2.3866 15.1824C2.24241 14.4774 2.16669 13.7476 2.16669 13C2.16669 11.8676 2.34044 10.7757 2.66274 9.74968C2.67792 9.74988 2.69312 9.74999 2.70835 9.74999C4.50328 9.74999 5.95835 8.29491 5.95835 6.49999C5.95835 5.98471 5.83844 5.49744 5.62499 5.06456C6.87785 3.89965 8.40697 3.02785 10.1032 2.55829C10.6407 3.61186 11.7361 4.33332 13 4.33332C14.2639 4.33332 15.3593 3.61186 15.8968 2.55829C17.5931 3.02785 19.1222 3.89965 20.3751 5.06456C20.1616 5.49744 20.0417 5.98471 20.0417 6.49999C20.0417 8.29491 21.4968 9.74999 23.2917 9.74999C23.3069 9.74999 23.3221 9.74988 23.3373 9.74968C23.6596 10.7757 23.8334 11.8676 23.8334 13C23.8334 13.7476 23.7576 14.4774 23.6134 15.1824C23.5076 15.172 23.4003 15.1667 23.2917 15.1667C21.4968 15.1667 20.0417 16.6217 20.0417 18.4167C20.0417 19.2147 20.3293 19.9456 20.8066 20.5112C19.5272 21.8406 17.9115 22.844 16.0963 23.3844C15.6774 22.0739 14.4495 21.125 13 21.125C11.5505 21.125 10.3227 22.0739 9.90375 23.3844Z" stroke="#929292" stroke-width="2" stroke-linejoin="round"/>
<path d="M13 16.7916C15.0941 16.7916 16.7917 15.0941 16.7917 13C16.7917 10.9059 15.0941 9.20831 13 9.20831C10.906 9.20831 9.20837 10.9059 9.20837 13C9.20837 15.0941 10.906 16.7916 13 16.7916Z" stroke="#929292" stroke-width="2" stroke-linejoin="round"/>
</svg>
