<svg width="13" height="7" viewBox="0 0 13 7" fill="none" xmlns="http://www.w3.org/2000/svg">
<path d="M0.0458669 6.62449C0.183135 6.93782 0.597922 7.09299 0.893347 6.9408C0.950045 6.91096 2.20336 5.6845 3.67452 4.21335L6.35423 1.53662L9.03095 4.21335C10.5051 5.6845 11.7584 6.91096 11.8151 6.9408C12.0329 7.0542 12.3761 6.98855 12.5522 6.79757C12.7133 6.62747 12.7581 6.29922 12.6536 6.09332C12.5641 5.92621 6.72425 0.101277 6.58698 0.0445788C6.52432 0.0207064 6.41988 -0.000182354 6.35423 -0.000182351C6.28858 -0.000182348 6.18413 0.0207065 6.12147 0.0445788C5.9842 0.101277 0.144341 5.92621 0.0548191 6.09332C-0.013815 6.22761 -0.019783 6.47529 0.0458669 6.62449Z" fill="white"/>
</svg>
