<svg width="34" height="30" viewBox="0 0 34 30" fill="none" xmlns="http://www.w3.org/2000/svg">
<path fill-rule="evenodd" clip-rule="evenodd" d="M10.1595 26.5102C10.1595 25.0756 11.3224 23.9126 12.757 23.9126C14.1916 23.9126 15.3546 25.0756 15.3546 26.5102C15.3546 27.9448 14.1916 29.1077 12.757 29.1077C11.3224 29.1077 10.1595 27.9448 10.1595 26.5102Z" fill="#285430"/>
<path fill-rule="evenodd" clip-rule="evenodd" d="M25.7447 26.5102C25.7447 25.0756 26.9077 23.9126 28.3423 23.9126C29.7768 23.9126 30.9398 25.0756 30.9398 26.5102C30.9398 27.9448 29.7768 29.1077 28.3423 29.1077C26.9077 29.1077 25.7447 27.9448 25.7447 26.5102Z" fill="#285430"/>
<path fill-rule="evenodd" clip-rule="evenodd" d="M0.511475 1.51701C0.511475 0.769594 1.12064 0.163696 1.87209 0.163696H7.31455C7.96306 0.163696 8.52144 0.61893 8.64871 1.25141L9.79146 6.93025H31.8056C32.2111 6.93025 32.5955 7.11014 32.854 7.4209C33.1125 7.73166 33.2181 8.14089 33.1422 8.53708L30.9632 19.9015C30.7766 20.8361 30.2654 21.6756 29.5192 22.2731C28.7766 22.8676 27.8485 23.1848 26.8957 23.17H13.694C12.7412 23.1848 11.813 22.8676 11.0705 22.2731C10.3246 21.6758 9.81351 20.8368 9.62669 19.9026L7.35373 8.60728C7.34451 8.56991 7.33684 8.53194 7.33082 8.49343L6.19928 2.87032H1.87209C1.12064 2.87032 0.511475 2.26442 0.511475 1.51701ZM10.3361 9.63687L12.2956 19.3742C12.3578 19.6857 12.5282 19.9656 12.7769 20.1647C13.0256 20.3639 13.3369 20.4697 13.6562 20.4636L13.6822 20.4634H26.9074L26.9335 20.4636C27.2528 20.4697 27.564 20.3639 27.8128 20.1647C28.0604 19.9665 28.2303 19.6883 28.2932 19.3785L30.161 9.63687H10.3361Z" fill="#285430"/>
</svg>
