<?xml version="1.0" encoding="utf-8"?>
<!-- Generator: Adobe Illustrator 27.6.1, SVG Export Plug-In . SVG Version: 6.00 Build 0)  -->
<svg version="1.1" id="Layer_1" xmlns="http://www.w3.org/2000/svg" xmlns:xlink="http://www.w3.org/1999/xlink" x="0px" y="0px"
	 viewBox="0 0 500 500" style="enable-background:new 0 0 500 500;" xml:space="preserve">
<style type="text/css">
	.st0{fill:#285430;}
</style>
<path class="st0" d="M380.18,168.05c-5.96-6.75-14.87-10.57-26.59-11.42c2.72-2.05,6.96-4.65,13.55-7.67
	c2.51-1.16,3.91-3.87,3.4-6.58c-0.28-1.45-7.15-35.51-40.19-40.95c-31.29-5.16-43.22,6.46-57.04,19.91l-0.5,0.5
	c-5.37,2.13-25.32,11.07-32.99,28.84c-4.41,10.23-4.01,21.35,1.21,33.06c1.07,2.41,3.59,3.83,6.22,3.51l13.24-1.64
	c-3.74,7.94-6.88,19.46-3.72,32.95c-1.19,3.03-5.42,13.93-8.95,23.89c-6.53-4.69-13.46-7.72-18.54-9.53
	c3.58-35.01-6.25-78.36-11.74-98.94l1.65,0.7c3.03,1.28,6.53-0.12,7.84-3.14c7.24-16.68,3.56-31.83-2.16-42.28l13.54,0.94
	c2.6,0.17,5.01-1.33,5.98-3.75c4.54-11.28,4.46-21.83-0.24-31.36c-8.64-17.49-30.33-25.37-35.9-27.15l-0.58-0.48
	c-14.85-12.24-27.66-22.81-59.13-16.4c-33.43,6.82-38.46,40.15-38.65,41.56c-0.39,2.78,1.2,5.46,3.83,6.45
	c6.43,2.42,10.77,4.58,13.69,6.36c-12.01,1.49-20.86,5.83-26.4,12.94c-8.99,11.53-5.31,25.66-5.15,26.26
	c0.53,1.98,2.05,3.56,4.02,4.17l10.72,3.31c-4.04,3.12-6.96,6.93-8.72,11.41c-5.63,14.33,3.43,29.59,3.82,30.23
	c1.37,2.27,4.07,3.36,6.63,2.71l4.7-1.21c-2.28,13.87,3.09,24.58,8.69,31.6c7.25,9.1,16.3,13.8,16.68,14
	c0.85,0.44,1.79,0.66,2.74,0.66c0.15,0,0.3,0,0.45-0.01c20.53-1.54,29.57-14.08,33.54-24.32c1.71-4.42,2.61-8.76,3.07-12.35
	l7.74,2.83c1.66,6.02,6.42,25.54,5.23,47.34c-9.14-2.44-20.16-2.39-35.08,2c-33.86,9.96-36.64,46.48-36.74,48.03
	c-0.18,2.76,1.54,5.28,4.17,6.11c8.03,2.56,13.06,4.94,16.18,6.85c-12.62,2.32-21.76,7.52-27.23,15.52
	c-9.04,13.19-4.16,28.67-3.95,29.33c0.64,1.96,2.24,3.46,4.25,3.96l12.38,3.1c-4.27,3.71-7.24,8.13-8.88,13.24
	c-5.09,15.93,5.39,32.03,5.84,32.71c1.52,2.3,4.41,3.26,7,2.35l5.03-1.78c-1.25,12.01,2.25,21.57,6.82,28.65v4.8
	c0,15.68,9.15,29.76,14.6,36.76c1.63,2.09,3.5,4.27,5.49,6.35h-0.76c-2.28,0-4.41,1.02-5.84,2.8c-1.42,1.77-1.96,4.07-1.47,6.29
	l4.18,18.95c1.81,8.22,9.24,14.18,17.65,14.18h135.63c8.43,0,15.66-5.73,17.59-13.93l4.5-19.1c0.52-2.24,0-4.55-1.42-6.35
	c-1.43-1.81-3.57-2.84-5.86-2.84h-2.01c10.76-10.39,20.54-26.89,20.54-44.89v-44c0-6.9-5.62-12.52-12.52-12.52h-37.93
	c-3.31,0-6,2.69-6,6c0,3.32,2.69,6,6,6h37.93c0.29,0,0.52,0.24,0.52,0.52v44c0,24.32-23.29,44.15-28.96,44.15H183.23
	c-4.69-1.33-20.26-16.32-24.93-33.12c4.85,3.63,8.73,5.43,8.99,5.54c0.78,0.36,1.63,0.54,2.49,0.54c0.3,0,0.61-0.02,0.91-0.07
	c16.65-2.56,27.97-12.56,32.74-28.91c1.5-5.16,2.1-10.16,2.29-14.18l15.18,4.68c2.64,0.81,5.49-0.29,6.91-2.65
	c4.07-6.79,5.33-13.78,4.87-20.5h39.17c3.32,0,6-2.68,6-6c0-3.31-2.68-6-6-6h-5.07c-2.38-38.73,6.27-73.54,13.79-95.63
	c1.12,3.45,2.86,6.85,5.4,10.1c1.7,2.18,4.66,2.91,7.18,1.78l13.26-5.94c0.66,3.68,1.79,8.14,3.72,12.63
	c6.41,14.88,18.26,23,34.26,23.47c0.06,0.01,0.12,0.01,0.18,0.01c1.11,0,2.2-0.31,3.14-0.89c10.76-6.6,27.15-24.3,21.95-48.33
	l4.4,0.97c2.69,0.59,5.43-0.72,6.66-3.19c0.34-0.69,8.35-17.1,1.68-31.56c-2.05-4.46-5.2-8.18-9.4-11.13l10.6-4.09
	c1.93-0.74,3.34-2.42,3.74-4.45C387.46,194.68,390.27,179.47,380.18,168.05z M323.54,464.98l-3.19,13.54
	c-0.65,2.76-3.08,4.68-5.91,4.68H178.81c-2.82,0-5.32-2-5.93-4.76l-2.97-13.46H323.54z M217.73,226.98
	c-3.56-2.64-7.11-5.09-10.88-7.18c1.87-21.58-1.84-41.25-4.23-51.09c0.24-0.23,0.46-0.48,0.66-0.75c4.03-5.46,5.8-11.22,6.09-16.89
	C214.11,171.74,219.37,201.58,217.73,226.98z M140.42,184.93c-7.35-6.37-16.45-18.45-9.17-35.79c0.88-2.1,0.5-4.52-0.99-6.25
	c-1.16-1.33-2.83-2.07-4.54-2.07c-0.5,0-1,0.06-1.5,0.19l-10.11,2.6c-1.56-3.97-3.22-10.26-1.04-15.75
	c2.01-5.08,7.22-8.85,15.49-11.21c2.55-0.73,4.32-3.05,4.35-5.7c0.03-2.66-1.69-5.02-4.23-5.8l-21.65-6.7
	c-0.22-3.26,0.11-8.49,3.51-12.79c4.74-6,14.6-9.04,28.49-8.81c2.48,0.03,4.7-1.43,5.65-3.71c0.41-1,1.21-3.74-0.39-7.42
	c-2.46-5.68-9.5-10.92-21.45-15.94c2.32-7.77,9.24-23.11,28.1-26.96c23.7-4.83,33.45,1.18,45.7,11.11
	C187.8,45.92,136.42,118.77,140.42,184.93z M178.71,150.77c-1.89-0.69-4.01-0.38-5.63,0.82c-1.62,1.2-2.53,3.15-2.42,5.16
	c0,0.08,0.4,8.27-2.84,16.41c-3.02,7.58-8.02,12.47-15.14,14.83c-6.23-64.24,48.98-140.66,54.28-147.83
	c7.62,2.79,21.15,9.57,26.43,20.25c2.62,5.32,3.04,11.08,1.26,17.5l-21.94-1.52c-2.51-0.16-4.88,1.26-5.9,3.58
	c-1.02,2.31-0.47,5.03,1.36,6.77c0.67,0.64,14.98,14.58,9.81,34.4l-28.37-12.02c-2.61-1.1-5.63-0.23-7.25,2.09
	c-1.62,2.32-1.4,5.47,0.53,7.54c0.22,0.23,20,21.7,12.92,38.28L178.71,150.77z M164.47,408.78c-2.45-1.92-5.12-4.41-7.51-7.5
	c-5.63-7.28-9.62-17.91-5.02-32.24c0.69-2.17,0.1-4.55-1.54-6.14c-1.13-1.11-2.64-1.7-4.18-1.7c-0.31,0-0.62,0.02-0.93,0.08
	c-0.36,0.05-0.71,0.14-1.06,0.27l-10.26,3.62c-2.02-4.42-4.41-11.75-2.25-18.43c1.86-5.76,7.02-10.3,15.32-13.49
	c2.45-0.94,4-3.36,3.84-5.97c-0.16-2.61-2-4.82-4.53-5.45l-23.05-5.76c-0.54-3.78-0.71-10.34,3.12-15.86
	c4.72-6.82,14.34-10.67,28.58-11.46c2.49-0.14,4.64-1.8,5.39-4.18c0.39-1.26,1.32-5.76-3.38-11.11c-3.9-4.43-10.96-8.5-21.03-12.12
	c1.7-8.61,7.62-26.98,27.49-32.82c24.42-7.19,34.88-1.08,48.5,9.13c-3.19,5.3-16.42,27.99-28.39,58.59
	c-7.65,19.55-13.14,38.02-16.48,55.33c-0.78,4.07-1.44,8.07-1.98,12C162.88,379.77,162.66,394.86,164.47,408.78z M219.47,373.72
	l-18.15-5.58c-1.93-0.6-4.04-0.17-5.6,1.13c-1.56,1.3-2.36,3.3-2.12,5.31c0.15,1.25,2.96,27.64-16.69,36.38
	c-2.46-15.28-1.95-31.41,0.41-47.39c0.59-4.01,1.3-8.02,2.11-12c10.9-53.65,39.8-102.71,43.13-108.24
	c6.69,2.07,21.55,7.81,28.51,19.68c3.58,6.12,4.56,12.98,2.95,20.86h-22.91c-2.49,0-4.72,1.55-5.6,3.89
	c-0.88,2.34-0.22,4.98,1.66,6.63c0.75,0.66,17.04,15.33,12.71,38.25l-30.26-11.07c-2.65-0.97-5.61,0.04-7.13,2.42
	c-1.51,2.38-1.15,5.5,0.85,7.48c0.16,0.16,8.84,8.88,13.87,20.1c1.7,3.79,2.99,7.87,3.38,12
	C220.9,366.96,220.62,370.39,219.47,373.72z M230.14,351.57c-1.46-4.22-3.4-8.17-5.47-11.72l17.27,6.32
	c1.52,0.56,3.21,0.47,4.67-0.23c1.46-0.7,2.57-1.97,3.08-3.51c6.85-20.55,0.5-36.74-5.85-46.56h14.14
	c-2.83,16.75-4.4,35.64-3.22,55.7H230.14z M265.01,265.06c-0.87-2.81-2.07-5.51-3.59-8.12c-1.18-2.01-2.52-3.88-3.97-5.62
	c2-5.9,4.6-12.95,6.75-18.64c1.52,0.5,3.18,0.38,4.61-0.36l10.45-5.35C277.26,231.05,270.83,244.87,265.01,265.06z M355.12,197.89
	c-2.44,0.94-3.99,3.36-3.83,5.97s2,4.82,4.54,5.45c8.03,2,13.3,5.59,15.66,10.66c2.68,5.76,1.42,12.61,0.1,16.94l-9.7-2.13
	c-2.24-0.49-4.54,0.32-5.97,2.1c-1.43,1.77-1.72,4.21-0.77,6.28c7.63,16.47,1.22,28.88-5.17,36.19
	c0.39-48.56-30.99-100.78-32.41-103.12c-1.72-2.83-5.41-3.72-8.24-2.01c-2.83,1.72-3.73,5.42-2.01,8.25
	c0.34,0.56,33.66,56.06,30.45,102.5c-19.84-5.45-20.27-30.78-20.28-31.95c0-2.03-1.03-3.93-2.74-5.03
	c-0.99-0.64-2.12-0.96-3.26-0.96c-0.83,0-1.67,0.17-2.45,0.52l-16.03,7.18c-8.02-17.08,10.12-40.45,10.31-40.7
	c1.76-2.21,1.73-5.35-0.06-7.53s-4.86-2.82-7.38-1.53l-26.65,13.66c-6.35-20.54,6.9-35.82,7.5-36.5c1.68-1.86,2.03-4.56,0.87-6.79
	c-1.15-2.22-3.56-3.5-6.05-3.18l-21.14,2.61c-2.29-6.98-2.15-13.33,0.41-19.29c5.01-11.66,18.04-18.74,24.1-21.49
	c2.74,2.71,13.52,13.85,19.97,27.23c1.04,2.14,3.18,3.39,5.41,3.39c0.88,0,1.76-0.19,2.6-0.59c2.99-1.44,4.24-5.03,2.8-8.02
	c-6.46-13.41-16.4-24.46-20.89-29.08c11.29-10.82,20.37-17.48,43.59-13.65c18.86,3.1,26.49,19.12,29.14,27
	c-9,4.56-14.95,9.08-18.13,13.75c-3.89,5.69-2.45,9.94-1.91,11.11c1.03,2.27,3.36,3.67,5.86,3.49c13.29-0.89,22.63,1.56,27.76,7.3
	c4.06,4.54,4.71,10.45,4.67,14.01L355.12,197.89z"/>
</svg>
