<svg width="30" height="27" viewBox="0 0 30 27" fill="none" xmlns="http://www.w3.org/2000/svg">
<path fill-rule="evenodd" clip-rule="evenodd" d="M17.9948 1.4907C18.9993 1.08454 20.0759 0.875488 21.1632 0.875488C22.2504 0.875488 23.327 1.08454 24.3315 1.4907C25.3357 1.89679 26.2482 2.49195 27.0167 3.24221C27.7855 3.99222 28.3958 4.8831 28.8119 5.86315C29.2281 6.84338 29.4423 7.89403 29.4423 8.95509C29.4423 10.0161 29.2281 11.0668 28.8119 12.047C28.3958 13.0272 27.7858 13.9177 27.0169 14.6678C27.0169 14.6678 27.017 14.6677 27.0169 14.6678L15.7604 25.6529C15.2631 26.1382 14.4569 26.1382 13.9596 25.6529L2.70304 14.6678C1.15052 13.1527 0.27832 11.0978 0.27832 8.95509C0.27832 6.81242 1.15052 4.75751 2.70304 3.24242C4.25556 1.72732 6.36124 0.876153 8.55684 0.876153C10.7524 0.876153 12.8581 1.72732 14.4106 3.24242L14.86 3.68095L15.3091 3.24262C15.3091 3.24269 15.3092 3.24256 15.3091 3.24262C16.0777 2.49227 16.9905 1.89682 17.9948 1.4907ZM21.1632 3.36082C20.4104 3.36082 19.6651 3.50555 18.9697 3.78674C18.2743 4.06793 17.6425 4.48006 17.1104 4.99961L15.7604 6.31704C15.2631 6.80233 14.4569 6.80233 13.9596 6.31704L12.6098 4.99981C11.5349 3.95081 10.077 3.36148 8.55684 3.36148C7.03667 3.36148 5.57877 3.95081 4.50385 4.99981C3.42893 6.04882 2.82505 7.47157 2.82505 8.95509C2.82505 10.4386 3.42893 11.8614 4.50385 12.9104L14.86 23.0168L25.2161 12.9104C25.7485 12.3911 26.171 11.7743 26.4592 11.0957C26.7473 10.417 26.8956 9.68966 26.8956 8.95509C26.8956 8.22051 26.7473 7.49314 26.4592 6.81451C26.171 6.13589 25.7487 5.51932 25.2163 5.00002C24.6842 4.48048 24.052 4.06793 23.3566 3.78674C22.6612 3.50555 21.9159 3.36082 21.1632 3.36082Z" fill="black"/>
</svg>
