<svg width="30" height="26" viewBox="0 0 30 26" fill="none" xmlns="http://www.w3.org/2000/svg">
<path fill-rule="evenodd" clip-rule="evenodd" d="M18.0371 0.615213C19.0415 0.209052 20.1181 0 21.2054 0C22.2926 0 23.3693 0.209052 24.3737 0.615213C25.378 1.0213 26.2904 1.61647 27.059 2.36672C27.8278 3.11674 28.4381 4.00761 28.8542 4.98766C29.2704 5.96789 29.4846 7.01855 29.4846 8.0796C29.4846 9.14065 29.2704 10.1913 28.8542 11.1715C28.438 12.1517 27.8281 13.0422 27.0592 13.7923C27.0591 13.7923 27.0593 13.7922 27.0592 13.7923L15.8026 24.7774C15.3054 25.2627 14.4991 25.2627 14.0018 24.7774L2.74528 13.7923C1.19276 12.2772 0.320557 10.2223 0.320557 8.0796C0.320557 5.93693 1.19276 3.88202 2.74528 2.36693C4.2978 0.851836 6.40347 0.000664544 8.59907 0.000664544C10.7947 0.000664544 12.9003 0.851836 14.4529 2.36693L14.9022 2.80546L15.3514 2.36714C15.3513 2.3672 15.3515 2.36707 15.3514 2.36714C16.12 1.61678 17.0327 1.02134 18.0371 0.615213ZM21.2054 2.48533C20.4527 2.48533 19.7073 2.63006 19.0119 2.91125C18.3165 3.19244 17.6847 3.60457 17.1526 4.12412L15.8026 5.44155C15.3054 5.92684 14.4991 5.92684 14.0018 5.44155L12.6521 4.12432C11.5771 3.07532 10.1192 2.486 8.59907 2.486C7.07891 2.486 5.62101 3.07532 4.54609 4.12432C3.47117 5.17333 2.86729 6.59608 2.86729 8.0796C2.86729 9.56311 3.47117 10.9859 4.54609 12.0349L14.9022 22.1413L25.2584 12.0349C25.7907 11.5156 26.2133 10.8988 26.5014 10.2202C26.7895 9.54154 26.9379 8.81417 26.9379 8.0796C26.9379 7.34503 26.7895 6.61765 26.5014 5.93903C26.2133 5.2604 25.791 4.64383 25.2586 4.12453C24.7265 3.60499 24.0942 3.19244 23.3988 2.91125C22.7034 2.63006 21.9581 2.48533 21.2054 2.48533Z" fill="black"/>
</svg>
