<?xml version="1.0" encoding="utf-8"?>
<!-- Generator: Adobe Illustrator 27.6.1, SVG Export Plug-In . SVG Version: 6.00 Build 0)  -->
<svg version="1.1" id="Layer_1" xmlns="http://www.w3.org/2000/svg" xmlns:xlink="http://www.w3.org/1999/xlink" x="0px" y="0px"
	 viewBox="0 0 500 500" style="enable-background:new 0 0 500 500;" xml:space="preserve">
<style type="text/css">
	.st0{fill:#FFFFFF;}
</style>
<path class="st0" d="M342.79,408.08v-74.67c0-6.9-5.62-12.52-12.52-12.52h-22.85c7.02-12.08,19.01-36.34,25.49-70.21
	c9.33-48.78-1.41-90.39-1.87-92.14c-0.63-2.38-2.65-4.14-5.1-4.43c-2.44-0.29-4.82,0.95-5.99,3.12l-16.22,30.15
	c6.77-41.36,3.65-69.37,3.46-70.97c-0.31-2.62-2.29-4.72-4.88-5.2c-2.58-0.47-5.19,0.8-6.4,3.13c-2.94,5.65-13.23,26.47-24.93,50.26
	c-1.64-23.45-5.58-36.43-5.79-37.12c-0.81-2.63-3.34-4.37-6.05-4.22c-2.75,0.15-5.04,2.14-5.57,4.84
	c-1.52,7.78-13.8,33.48-24.37,54.28c-6.71-33.82-15.17-63.31-18.16-68.54c-1.15-2-3.33-3.17-5.64-3.01
	c-2.3,0.17-4.31,1.64-5.15,3.79c-0.62,1.58-12.56,32.53-16.76,80.48l-21.92-38.58c-1.26-2.23-3.81-3.41-6.32-2.93
	c-2.52,0.47-4.46,2.49-4.83,5.02c-0.32,2.17-7.76,53.67,0.65,95.11c6.06,29.85,17.8,54.96,24.2,67.18H152.5
	c-6.9,0-12.52,5.62-12.52,12.52v76.44c0,15.68,9.15,29.76,14.6,36.76c1.63,2.09,3.49,4.27,5.49,6.35h-0.77
	c-2.28,0-4.4,1.02-5.83,2.8c-1.43,1.78-1.96,4.07-1.47,6.29l4.18,18.95c1.81,8.22,9.24,14.18,17.65,14.18h135.62
	c8.43,0,15.67-5.73,17.6-13.94l4.49-19.1c0.52-2.24,0.01-4.55-1.42-6.35c-1.43-1.8-3.56-2.83-5.86-2.83h-2
	C333.01,442.58,342.79,426.08,342.79,408.08z M315.36,478.51c-0.65,2.76-3.08,4.68-5.91,4.68H173.83c-2.83,0-5.32-2-5.93-4.77
	l-2.97-13.46h153.62L315.36,478.51z M295.95,141.12c-0.44,21.41-3.59,55.72-16.41,95.03c-17.99,55.16-28.41,78.36-31.48,84.75
	h-11.42c0.89-11.02,2.5-35.68,1.73-62.84c0.27-0.34,0.51-0.71,0.71-1.12C239.54,255.98,276.64,180.14,295.95,141.12z M233.66,199.91
	c2.05-3.9,15.14-28.99,23.91-48.72c1.21,9.24,2.21,21.5,2.11,36.42c-8.5,17.31-16.76,34.18-22.69,46.28
	c-0.34-3.84-0.74-7.66-1.21-11.44c-0.87-6.97-1.93-14.08-3.12-21.16C233.05,200.89,233.39,200.43,233.66,199.91z M162.82,251.34
	c-5.02-24.74-3.97-54.13-2.48-72.67l20.42,35.94c0.39,0.68,0.89,1.25,1.46,1.71c-0.16,4.94-0.22,10.02-0.17,15.23
	c0.03,3.3,2.71,5.95,6,5.95c0.02,0,0.04,0,0.05,0c3.31-0.03,5.98-2.74,5.95-6.05c-0.37-41.93,6.72-75.91,11.95-95.15
	c5.65,20.23,13.84,55.37,17.87,87.65c4.78,38.22,1.88,82.53,0.7,96.96h-18.12c-8.98-29.96-12.4-64.45-12.44-64.8
	c-0.32-3.3-3.25-5.71-6.55-5.39c-3.3,0.32-5.71,3.25-5.39,6.55c0.14,1.43,3.31,33.52,11.88,63.64h-5.02
	C184.94,313.83,169.75,285.48,162.82,251.34z M151.98,409.86v-76.44c0-0.29,0.23-0.52,0.52-0.52h114.37c3.31,0,6-2.69,6-6
	c0-3.31-2.69-6-6-6h-5.59c4.87-10.93,14.64-34.95,29.67-81.03c1.03-3.17,2.01-6.31,2.92-9.41c0.43-0.42,0.8-0.9,1.1-1.46
	l27.49-51.09c2.25,16.04,4.09,42.18-1.34,70.53c-7.62,39.81-23.56,66-27.81,72.46h-0.96c-3.31,0-6,2.69-6,6c0,3.31,2.69,6,6,6h37.93
	c0.29,0,0.52,0.23,0.52,0.52v74.67c0,24.32-23.29,44.15-28.96,44.15H178.25C172.7,450.66,151.98,430.02,151.98,409.86z"/>
</svg>
