<svg width="32" height="23" viewBox="0 0 32 23" fill="none" xmlns="http://www.w3.org/2000/svg">
<path fill-rule="evenodd" clip-rule="evenodd" d="M0.679443 1.72266C0.679443 0.84434 1.37722 0.132324 2.23797 0.132324H30.2914C31.1522 0.132324 31.8499 0.84434 31.8499 1.72266C31.8499 2.60097 31.1522 3.31299 30.2914 3.31299H2.23797C1.37722 3.31299 0.679443 2.60097 0.679443 1.72266Z" fill="#285430"/>
<path fill-rule="evenodd" clip-rule="evenodd" d="M0.679443 11.2646C0.679443 10.3863 1.37722 9.67431 2.23797 9.67431H30.2914C31.1522 9.67431 31.8499 10.3863 31.8499 11.2646C31.8499 12.143 31.1522 12.855 30.2914 12.855H2.23797C1.37722 12.855 0.679443 12.143 0.679443 11.2646Z" fill="#285430"/>
<path fill-rule="evenodd" clip-rule="evenodd" d="M0.679443 20.8066C0.679443 19.9283 1.37722 19.2163 2.23797 19.2163H30.2914C31.1522 19.2163 31.8499 19.9283 31.8499 20.8066C31.8499 21.6849 31.1522 22.397 30.2914 22.397H2.23797C1.37722 22.397 0.679443 21.6849 0.679443 20.8066Z" fill="#285430"/>
</svg>
