<svg width="26" height="27" viewBox="0 0 26 27" fill="none" xmlns="http://www.w3.org/2000/svg">
<circle cx="13.0846" cy="13.7938" r="12.7972" fill="#292929"/>
<path fill-rule="evenodd" clip-rule="evenodd" d="M13.0846 5.26221C13.6736 5.26221 14.151 5.73967 14.151 6.32864V21.2587C14.151 21.8477 13.6736 22.3252 13.0846 22.3252C12.4956 22.3252 12.0181 21.8477 12.0181 21.2587V6.32864C12.0181 5.73967 12.4956 5.26221 13.0846 5.26221Z" fill="white"/>
<path fill-rule="evenodd" clip-rule="evenodd" d="M4.5531 13.7937C4.5531 13.2047 5.03056 12.7273 5.61954 12.7273H20.5496C21.1386 12.7273 21.6161 13.2047 21.6161 13.7937C21.6161 14.3827 21.1386 14.8601 20.5496 14.8601H5.61954C5.03056 14.8601 4.5531 14.3827 4.5531 13.7937Z" fill="white"/>
</svg>
