<svg width="33" height="34" viewBox="0 0 33 34" fill="none" xmlns="http://www.w3.org/2000/svg">
<path fill-rule="evenodd" clip-rule="evenodd" d="M3.27583 21.4661C4.93827 19.7263 7.19302 18.7489 9.54406 18.7489H23.7275C26.0785 18.7489 28.3333 19.7263 29.9957 21.4661C31.6581 23.2058 32.5921 25.5655 32.5921 28.0259V31.7366C32.5921 32.7613 31.7983 33.592 30.8192 33.592C29.84 33.592 29.0462 32.7613 29.0462 31.7366V28.0259C29.0462 26.5496 28.4859 25.1339 27.4884 24.09C26.4909 23.0461 25.1381 22.4597 23.7275 22.4597H9.54406C8.13344 22.4597 6.78059 23.0461 5.78312 24.09C4.78566 25.1339 4.22529 26.5496 4.22529 28.0259V31.7366C4.22529 32.7613 3.43153 33.592 2.45237 33.592C1.47321 33.592 0.679443 32.7613 0.679443 31.7366V28.0259C0.679443 25.5655 1.61339 23.2058 3.27583 21.4661Z" fill="#285430"/>
<path fill-rule="evenodd" clip-rule="evenodd" d="M16.6358 4.35114C13.8077 4.35114 11.515 6.64382 11.515 9.472C11.515 12.3002 13.8077 14.5929 16.6358 14.5929C19.464 14.5929 21.7567 12.3002 21.7567 9.472C21.7567 6.64382 19.464 4.35114 16.6358 4.35114ZM8.10107 9.472C8.10107 4.75837 11.9222 0.937225 16.6358 0.937225C21.3495 0.937225 25.1706 4.75837 25.1706 9.472C25.1706 14.1856 21.3495 18.0068 16.6358 18.0068C11.9222 18.0068 8.10107 14.1856 8.10107 9.472Z" fill="#285430"/>
</svg>
