<svg width="28" height="27" viewBox="0 0 28 27" fill="none" xmlns="http://www.w3.org/2000/svg">
<path fill-rule="evenodd" clip-rule="evenodd" d="M10.6506 17.7135C14.5565 17.7135 17.7229 14.6351 17.7229 10.8376C17.7229 7.04021 14.5565 3.96179 10.6506 3.96179C6.74467 3.96179 3.5783 7.04021 3.5783 10.8376C3.5783 14.6351 6.74467 17.7135 10.6506 17.7135ZM10.6506 20.7694C16.2925 20.7694 20.8661 16.3228 20.8661 10.8376C20.8661 5.35246 16.2925 0.905853 10.6506 0.905853C5.00871 0.905853 0.435059 5.35246 0.435059 10.8376C0.435059 16.3228 5.00871 20.7694 10.6506 20.7694Z" fill="#285430"/>
<path fill-rule="evenodd" clip-rule="evenodd" d="M16.6116 16.633C17.2253 16.0363 18.2204 16.0363 18.8342 16.633L26.6923 24.2729C27.3061 24.8696 27.3061 25.837 26.6923 26.4337C26.0785 27.0304 25.0835 27.0304 24.4697 26.4337L16.6116 18.7939C15.9978 18.1972 15.9978 17.2298 16.6116 16.633Z" fill="#285430"/>
</svg>
