<?xml version="1.0" encoding="utf-8"?>
<!-- Generator: Adobe Illustrator 27.6.1, SVG Export Plug-In . SVG Version: 6.00 Build 0)  -->
<svg version="1.1" id="Layer_1" xmlns="http://www.w3.org/2000/svg" xmlns:xlink="http://www.w3.org/1999/xlink" x="0px" y="0px"
	 viewBox="0 0 500 500" style="enable-background:new 0 0 500 500;" xml:space="preserve">
<style type="text/css">
	.st0{fill:#FFFFFF;}
</style>
<path class="st0" d="M332.33,321.1c20.16-26.93,12.73-58.8,12.34-60.41l-0.94-3.8l-3.89-0.49c-10.05-1.24-19.14-1.31-27.37-0.51
	c8.29-29.37-5.56-51.26-6.18-52.23l-1.8-2.77l-3.29,0.18c-32.7,1.84-53.08,15.59-65.58,30.03c-7.52-7.65-32.35-29.8-67.7-30.04
	l-2.9-0.02l-1.72,2.35c-0.55,0.75-12.9,18.17-6.25,51.96c-4.11-0.1-8.4-0.04-12.9,0.22l-3.46,0.2l-1.41,3.17
	c-0.53,1.2-11.25,26.52,12.74,61.96c-6.78,0.14-12.24,5.7-12.24,12.51v76.45c0,15.67,9.14,29.76,14.6,36.76
	c1.62,2.09,3.49,4.26,5.49,6.35h-0.77c-2.28,0-4.4,1.02-5.83,2.8c-1.43,1.78-1.96,4.07-1.47,6.29l4.18,18.95
	c1.81,8.22,9.24,14.18,17.65,14.18h135.62c8.43,0,15.67-5.73,17.6-13.94l4.49-19.1c0.52-2.24,0.01-4.55-1.42-6.35
	c-1.43-1.8-3.56-2.83-5.86-2.83h-2.01c10.76-10.38,20.54-26.89,20.54-44.89v-74.67C342.59,327.28,338.16,322.16,332.33,321.1z
	 M315.17,478.51c-0.65,2.76-3.08,4.68-5.92,4.68H173.63c-2.83,0-5.32-2-5.93-4.77l-2.97-13.46h153.62L315.17,478.51z M236.74,248.79
	c13.16-21.57,33.85-33.71,61.55-36.12c3.19,6.55,9.52,23.64,1.74,44.75c-0.06,0.17-0.11,0.33-0.15,0.5
	c-21.14,4.84-35.34,15.77-44.42,25.92c-7.29,8.17-12.08,16.61-15.1,23.23c-2.11-5-4.89-10.37-8.58-15.7c-2-2.88-4.33-5.84-7.05-8.76
	c0.02-0.12,0.06-0.24,0.07-0.37C224.82,282.07,226.43,265.68,236.74,248.79z M171.1,212.53c31.43,1.63,53.49,23.42,57.58,27.76
	c-0.57,0.86-1.13,1.73-1.65,2.58c-7.23,11.85-10.67,23.44-12.26,30.72c-10.86-8.25-25.71-15.08-45.93-17.42
	C163.41,232.27,168.45,217.91,171.1,212.53z M148.71,266.74c33.63-1.1,58.34,9.21,73.45,30.72c5.84,8.32,9.14,16.87,10.98,23.43
	h-67.08C145.27,294.29,146.97,274.25,148.71,266.74z M330.59,408.08c0,24.32-23.29,44.15-28.96,44.15H178.05
	c-5.55-1.57-26.27-22.21-26.27-42.37v-76.45c0-0.28,0.23-0.52,0.51-0.52h8.9h12.63h61.64h11.21h19.99c3.32,0,6-2.68,6-6
	c0-3.31-2.68-6-6-6h-19.42c1.18-3.99,5.66-17.12,16.7-29.47c16.84-18.84,40.49-26.96,70.37-24.19c1.34,9.51,2.56,34.45-16.87,53.66
	h-25.29c-3.32,0-6,2.69-6,6c0,3.32,2.68,6,6,6h15.31h13.68h8.93c0.29,0,0.52,0.24,0.52,0.52V408.08z"/>
</svg>
