<svg width="22" height="22" viewBox="0 0 22 22" fill="none" xmlns="http://www.w3.org/2000/svg">
<path fill-rule="evenodd" clip-rule="evenodd" d="M9.12944 0.708672C9.28505 0.358565 9.63224 0.132935 10.0154 0.132935C11.0439 0.132935 12.0302 0.5415 12.7575 1.26875C13.4847 1.996 13.8933 2.98237 13.8933 4.01086V6.9193H18.4061C18.8257 6.91542 19.2411 7.00235 19.6239 7.17417C20.0086 7.3468 20.3511 7.60101 20.6278 7.91916C20.9044 8.23732 21.1086 8.61182 21.2261 9.01672C21.3437 9.42162 21.3718 9.84723 21.3085 10.2641L19.9707 18.9893C19.9706 18.9895 19.9707 18.989 19.9707 18.9893C19.8654 19.6825 19.513 20.3151 18.9788 20.7693C18.4458 21.2223 17.7675 21.468 17.0682 21.4615H3.229C2.45763 21.4615 1.71786 21.1551 1.17242 20.6097C0.626981 20.0642 0.320557 19.3244 0.320557 18.5531V11.7667C0.320557 10.9953 0.626981 10.2556 1.17242 9.71013C1.71786 9.16469 2.45763 8.85826 3.229 8.85826H5.5074L9.12944 0.708672ZM5.16796 10.7972H3.229C2.97188 10.7972 2.72529 10.8994 2.54347 11.0812C2.36166 11.263 2.25952 11.5096 2.25952 11.7667V18.5531C2.25952 18.8102 2.36166 19.0568 2.54347 19.2386C2.72529 19.4204 2.97188 19.5226 3.229 19.5226H5.16796V10.7972ZM7.10692 19.5226H17.0841C17.318 19.5252 17.5448 19.4433 17.723 19.2919C17.9011 19.1404 18.0186 18.9297 18.0536 18.6986L19.3915 9.9731C19.3915 9.97323 19.3916 9.97297 19.3915 9.9731C19.4125 9.83428 19.4032 9.69216 19.3641 9.55732C19.3249 9.42235 19.2568 9.29752 19.1646 9.19147C19.0724 9.08541 18.9582 9.00068 18.83 8.94314C18.7018 8.88559 18.5626 8.85661 18.422 8.8582L18.4111 8.85833L12.9238 8.85826C12.3884 8.85826 11.9543 8.42421 11.9543 7.88878V4.01086C11.9543 3.49661 11.75 3.00343 11.3864 2.63981C11.1655 2.41892 10.8968 2.25682 10.6046 2.16361L7.10692 10.0335V19.5226Z" fill="black"/>
</svg>
